<svg id="visual" viewBox="0 0 960 300" width="960" height="300" xmlns="http://www.w3.org/2000/svg" xmlns:xlink="http://www.w3.org/1999/xlink" version="1.1"><rect x="0" y="0" width="960" height="300" fill="#002233"></rect><path d="M0 189L22.8 186.5C45.7 184 91.3 179 137 182C182.7 185 228.3 196 274 203.5C319.7 211 365.3 215 411.2 215.2C457 215.3 503 211.7 548.8 206.2C594.7 200.7 640.3 193.3 686 190.5C731.7 187.7 777.3 189.3 823 192.3C868.7 195.3 914.3 199.7 937.2 201.8L960 204L960 301L937.2 301C914.3 301 868.7 301 823 301C777.3 301 731.7 301 686 301C640.3 301 594.7 301 548.8 301C503 301 457 301 411.2 301C365.3 301 319.7 301 274 301C228.3 301 182.7 301 137 301C91.3 301 45.7 301 22.8 301L0 301Z" fill="#4facf7"></path><path d="M0 226L22.8 223.5C45.7 221 91.3 216 137 216.8C182.7 217.7 228.3 224.3 274 223.5C319.7 222.7 365.3 214.3 411.2 212.5C457 210.7 503 215.3 548.8 219.2C594.7 223 640.3 226 686 228.3C731.7 230.7 777.3 232.3 823 232.8C868.7 233.3 914.3 232.7 937.2 232.3L960 232L960 301L937.2 301C914.3 301 868.7 301 823 301C777.3 301 731.7 301 686 301C640.3 301 594.7 301 548.8 301C503 301 457 301 411.2 301C365.3 301 319.7 301 274 301C228.3 301 182.7 301 137 301C91.3 301 45.7 301 22.8 301L0 301Z" fill="#2b9dfc"></path><path d="M0 245L22.8 240.7C45.7 236.3 91.3 227.7 137 227C182.7 226.3 228.3 233.7 274 238.7C319.7 243.7 365.3 246.3 411.2 244.2C457 242 503 235 548.8 230C594.7 225 640.3 222 686 226.3C731.7 230.7 777.3 242.3 823 246C868.7 249.7 914.3 245.3 937.2 243.2L960 241L960 301L937.2 301C914.3 301 868.7 301 823 301C777.3 301 731.7 301 686 301C640.3 301 594.7 301 548.8 301C503 301 457 301 411.2 301C365.3 301 319.7 301 274 301C228.3 301 182.7 301 137 301C91.3 301 45.7 301 22.8 301L0 301Z" fill="#008cff"></path><path d="M0 267L22.8 267.3C45.7 267.7 91.3 268.3 137 266C182.7 263.7 228.3 258.3 274 257.7C319.7 257 365.3 261 411.2 259C457 257 503 249 548.8 245.5C594.7 242 640.3 243 686 243.7C731.7 244.3 777.3 244.7 823 248.7C868.7 252.7 914.3 260.3 937.2 264.2L960 268L960 301L937.2 301C914.3 301 868.7 301 823 301C777.3 301 731.7 301 686 301C640.3 301 594.7 301 548.8 301C503 301 457 301 411.2 301C365.3 301 319.7 301 274 301C228.3 301 182.7 301 137 301C91.3 301 45.7 301 22.8 301L0 301Z" fill="#007aff"></path><path d="M0 283L22.8 279.8C45.7 276.7 91.3 270.3 137 268.7C182.7 267 228.3 270 274 270.3C319.7 270.7 365.3 268.3 411.2 269C457 269.7 503 273.3 548.8 273.7C594.7 274 640.3 271 686 269.2C731.7 267.3 777.3 266.7 823 266.5C868.7 266.3 914.3 266.7 937.2 266.8L960 267L960 301L937.2 301C914.3 301 868.7 301 823 301C777.3 301 731.7 301 686 301C640.3 301 594.7 301 548.8 301C503 301 457 301 411.2 301C365.3 301 319.7 301 274 301C228.3 301 182.7 301 137 301C91.3 301 45.7 301 22.8 301L0 301Z" fill="#0066ff"></path></svg>