<svg id="visual" viewBox="0 0 960 200" width="960" height="200" xmlns="http://www.w3.org/2000/svg" xmlns:xlink="http://www.w3.org/1999/xlink" version="1.1"><rect x="0" y="0" width="960" height="200" fill="#002233"></rect><path d="M0 127L22.8 125.8C45.7 124.7 91.3 122.3 137 121.3C182.7 120.3 228.3 120.7 274 124.3C319.7 128 365.3 135 411.2 134.2C457 133.3 503 124.7 548.8 124.2C594.7 123.7 640.3 131.3 686 133.8C731.7 136.3 777.3 133.7 823 130.3C868.7 127 914.3 123 937.2 121L960 119L960 201L937.2 201C914.3 201 868.7 201 823 201C777.3 201 731.7 201 686 201C640.3 201 594.7 201 548.8 201C503 201 457 201 411.2 201C365.3 201 319.7 201 274 201C228.3 201 182.7 201 137 201C91.3 201 45.7 201 22.8 201L0 201Z" fill="#4facf7"></path><path d="M0 153L22.8 150C45.7 147 91.3 141 137 141C182.7 141 228.3 147 274 149.2C319.7 151.3 365.3 149.7 411.2 147C457 144.3 503 140.7 548.8 138.7C594.7 136.7 640.3 136.3 686 136.7C731.7 137 777.3 138 823 140.3C868.7 142.7 914.3 146.3 937.2 148.2L960 150L960 201L937.2 201C914.3 201 868.7 201 823 201C777.3 201 731.7 201 686 201C640.3 201 594.7 201 548.8 201C503 201 457 201 411.2 201C365.3 201 319.7 201 274 201C228.3 201 182.7 201 137 201C91.3 201 45.7 201 22.8 201L0 201Z" fill="#2b9dfc"></path><path d="M0 167L22.8 167.2C45.7 167.3 91.3 167.7 137 164.3C182.7 161 228.3 154 274 152.7C319.7 151.3 365.3 155.7 411.2 158.7C457 161.7 503 163.3 548.8 163.8C594.7 164.3 640.3 163.7 686 163.7C731.7 163.7 777.3 164.3 823 163.3C868.7 162.3 914.3 159.7 937.2 158.3L960 157L960 201L937.2 201C914.3 201 868.7 201 823 201C777.3 201 731.7 201 686 201C640.3 201 594.7 201 548.8 201C503 201 457 201 411.2 201C365.3 201 319.7 201 274 201C228.3 201 182.7 201 137 201C91.3 201 45.7 201 22.8 201L0 201Z" fill="#008cff"></path><path d="M0 178L22.8 175C45.7 172 91.3 166 137 164.2C182.7 162.3 228.3 164.7 274 167.2C319.7 169.7 365.3 172.3 411.2 174.3C457 176.3 503 177.7 548.8 178C594.7 178.3 640.3 177.7 686 177C731.7 176.3 777.3 175.7 823 174.5C868.7 173.3 914.3 171.7 937.2 170.8L960 170L960 201L937.2 201C914.3 201 868.7 201 823 201C777.3 201 731.7 201 686 201C640.3 201 594.7 201 548.8 201C503 201 457 201 411.2 201C365.3 201 319.7 201 274 201C228.3 201 182.7 201 137 201C91.3 201 45.7 201 22.8 201L0 201Z" fill="#007aff"></path><path d="M0 176L22.8 176.2C45.7 176.3 91.3 176.7 137 179C182.7 181.3 228.3 185.7 274 187.3C319.7 189 365.3 188 411.2 187.5C457 187 503 187 548.8 185.2C594.7 183.3 640.3 179.7 686 178.8C731.7 178 777.3 180 823 180.3C868.7 180.7 914.3 179.3 937.2 178.7L960 178L960 201L937.2 201C914.3 201 868.7 201 823 201C777.3 201 731.7 201 686 201C640.3 201 594.7 201 548.8 201C503 201 457 201 411.2 201C365.3 201 319.7 201 274 201C228.3 201 182.7 201 137 201C91.3 201 45.7 201 22.8 201L0 201Z" fill="#0066ff"></path></svg>