<svg id="visual" viewBox="0 0 960 300" width="960" height="300" xmlns="http://www.w3.org/2000/svg" xmlns:xlink="http://www.w3.org/1999/xlink" version="1.1"><rect x="0" y="0" width="960" height="300" fill="#002233"></rect><path d="M0 115L22.8 117.5C45.7 120 91.3 125 137 118.8C182.7 112.7 228.3 95.3 274 100.7C319.7 106 365.3 134 411.2 136.7C457 139.3 503 116.7 548.8 102.7C594.7 88.7 640.3 83.3 686 90.3C731.7 97.3 777.3 116.7 823 115.8C868.7 115 914.3 94 937.2 83.5L960 73L960 0L937.2 0C914.3 0 868.7 0 823 0C777.3 0 731.7 0 686 0C640.3 0 594.7 0 548.8 0C503 0 457 0 411.2 0C365.3 0 319.7 0 274 0C228.3 0 182.7 0 137 0C91.3 0 45.7 0 22.8 0L0 0Z" fill="#0066FF" stroke-linecap="round" stroke-linejoin="miter"></path></svg>